<mxfile host="app.diagrams.net" modified="2023-04-26T04:54:37.840Z" agent="Mozilla/5.0 (Macintosh; Intel Mac OS X 10_15_7) AppleWebKit/537.36 (KHTML, like Gecko) Chrome/112.0.0.0 Safari/537.36" version="21.2.2" etag="1joSxMuPP16FGLxs3ys3" type="github">
  <diagram name="第 1 页" id="sBWVA9jl14-BvqyWygIG">
    <mxGraphModel>
      <root>
        <mxCell id="0" />
        <mxCell id="1" parent="0" />
      </root>
    </mxGraphModel>
  </diagram>
</mxfile>
